<svg xmlns="http://www.w3.org/2000/svg" width="21.588" height="17.433" viewBox="0 0 21.588 17.433">
  <g id="Group_57951" data-name="Group 57951" transform="translate(-146.294 -158.791)">
    <g id="keyboard_backspace_FILL0_wght400_GRAD0_opsz48" transform="translate(141 147.499)" fill="#393939">
      <path d="M 13.98128032684326 28.37045097351074 L 13.8042106628418 28.19277954101562 L 5.822930335998535 20.18462944030762 L 5.647040367126465 20.00815010070801 L 5.822930335998535 19.8316707611084 L 13.8042106628418 11.82351970672607 L 13.98128032684326 11.64585018157959 L 14.15834999084473 11.82351970672607 L 15.59430980682373 13.26432037353516 L 15.7701997756958 13.44079971313477 L 15.59430980682373 13.61728000640869 L 10.47587966918945 18.75293922424316 L 26.38166046142578 18.75293922424316 L 26.63166046142578 18.75293922424316 L 26.63166046142578 19.00293922424316 L 26.63166046142578 21.01336097717285 L 26.63166046142578 21.26336097717285 L 26.38166046142578 21.26336097717285 L 10.47587966918945 21.26336097717285 L 15.59430980682373 26.39901924133301 L 15.7701997756958 26.57550048828125 L 15.59430980682373 26.75197982788086 L 14.15834999084473 28.19277954101562 L 13.98128032684326 28.37045097351074 Z" stroke="none"/>
      <path d="M 13.98128032684326 28.01630020141602 L 15.41724014282227 26.57550048828125 L 9.873760223388672 21.01336097717285 L 26.38166046142578 21.01336097717285 L 26.38166046142578 19.00293922424316 L 9.873760223388672 19.00293922424316 L 15.41724014282227 13.44079971313477 L 13.98128032684326 12 L 6 20.00815010070801 L 13.98128032684326 28.01630020141602 M 13.98128032684326 28.72459983825684 L 5.294080257415771 20.00815010070801 L 13.98128032684326 11.29170036315918 L 16.12315940856934 13.44079971313477 L 11.0780086517334 18.50293922424316 L 26.88166046142578 18.50293922424316 L 26.88166046142578 21.51336097717285 L 11.0780086517334 21.51336097717285 L 16.12315940856934 26.57550048828125 L 13.98128032684326 28.72459983825684 Z" stroke="none" fill="#393939"/>
    </g>
  </g>
</svg>
