<svg xmlns="http://www.w3.org/2000/svg" width="52.227" height="52.227" viewBox="0 0 52.227 52.227">
  <path id="no_photography_FILL0_wght300_GRAD0_opsz24" d="M102.542-825.2l-3.806-3.806v-24.986a.76.76,0,0,0-.22-.561.76.76,0,0,0-.561-.22H88.507l-4.656-5.075H73.018l-2.435,2.689-2.713-2.713,3.489-3.782H85.511l4.695,5.075h7.75a4.428,4.428,0,0,1,3.255,1.332,4.428,4.428,0,0,1,1.332,3.255V-825.2Zm-43.628,4.685a4.428,4.428,0,0,1-3.255-1.332,4.428,4.428,0,0,1-1.332-3.255v-28.89a4.428,4.428,0,0,1,1.332-3.255,4.428,4.428,0,0,1,3.255-1.332h3.065l3.806,3.806H58.914a.76.76,0,0,0-.561.22.76.76,0,0,0-.22.561v28.89a.76.76,0,0,0,.22.561.76.76,0,0,0,.561.22H96.237l3.806,3.806Zm28.075-13.054a10.764,10.764,0,0,1-3.648,3.25,10.008,10.008,0,0,1-4.907,1.215,10.077,10.077,0,0,1-7.406-3.038,10.077,10.077,0,0,1-3.038-7.406,10.008,10.008,0,0,1,1.215-4.907,10.764,10.764,0,0,1,3.25-3.648l2.752,2.752a6.576,6.576,0,0,0-2.479,2.369,6.435,6.435,0,0,0-.932,3.433,6.418,6.418,0,0,0,1.913,4.724,6.418,6.418,0,0,0,4.724,1.913,6.435,6.435,0,0,0,3.433-.932,6.575,6.575,0,0,0,2.369-2.479l2.752,2.752Zm-1.142-13.391a9.77,9.77,0,0,1,2.174,3.165,10.421,10.421,0,0,1,.832,3.931v.468a2.842,2.842,0,0,1-.039.468l-11-11a2.841,2.841,0,0,1,.468-.039h.468a10.422,10.422,0,0,1,3.931.832A9.769,9.769,0,0,1,85.847-846.963Zm14.9,32.575L51.233-863.9l2.713-2.713L103.46-817.1l-2.713,2.713ZM75.585-839.55ZM84.627-843.117Z" transform="translate(-51.233 866.615)" fill="#afafaf"/>
</svg>
