<svg xmlns="http://www.w3.org/2000/svg" width="19.69" height="19.459" viewBox="0 0 19.69 19.459">
  <path id="search_FILL0_wght300_GRAD0_opsz24" d="M154.5-805.155l-5.777-5.546a7.292,7.292,0,0,1-2.2,1.236,7.56,7.56,0,0,1-2.572.446,7.528,7.528,0,0,1-5.533-2.264,7.524,7.524,0,0,1-2.264-5.532,7.532,7.532,0,0,1,2.264-5.534,7.522,7.522,0,0,1,5.532-2.266,7.53,7.53,0,0,1,5.534,2.264,7.524,7.524,0,0,1,2.266,5.533,7.48,7.48,0,0,1-.459,2.609,7.291,7.291,0,0,1-1.224,2.163l5.777,5.546Zm-10.549-5.776a5.68,5.68,0,0,0,4.175-1.71,5.679,5.679,0,0,0,1.71-4.175,5.679,5.679,0,0,0-1.71-4.175,5.679,5.679,0,0,0-4.175-1.71,5.679,5.679,0,0,0-4.175,1.71,5.68,5.68,0,0,0-1.71,4.175,5.679,5.679,0,0,0,1.71,4.175A5.68,5.68,0,0,0,143.953-810.931Z" transform="translate(-136.155 824.614)" fill="#8e8e8e"/>
</svg>
