<svg xmlns="http://www.w3.org/2000/svg" width="84" height="84" viewBox="0 0 84 84">
  <g id="success_message_icon" transform="translate(-15.988 -15.488)">
    <g id="Rectangle_6846" data-name="Rectangle 6846" transform="translate(20.988 20.488)" fill="none" stroke="#b8e5a0" stroke-width="1">
      <rect width="74" height="74" rx="37" stroke="none"/>
      <rect x="0.5" y="0.5" width="73" height="73" rx="36.5" fill="none"/>
    </g>
    <rect id="Rectangle_7158" data-name="Rectangle 7158" width="64" height="64" rx="32" transform="translate(25.988 25.488)" fill="#4b9d20"/>
    <g id="success_icon" transform="translate(48.189 49.867)">
      <g id="Group_57086" data-name="Group 57086" transform="translate(0 0)">
        <g id="check_circle_FILL0_wght400_GRAD0_opsz48" transform="translate(-6.437 -7.516)" fill="#fff" stroke-linecap="round" stroke-linejoin="round">
          <path d="M 14.00459480285645 22.98690605163574 L 13.79246520996094 22.77348709106445 L 6.223824977874756 15.15897655487061 L 6.012975215911865 14.9468469619751 L 6.224464893341064 14.73535633087158 L 8.288644790649414 12.67117691040039 L 8.500775337219238 12.45904636383057 L 8.712904930114746 12.67117691040039 L 14.00524520874023 17.96351623535156 L 24.6644458770752 7.30432653427124 L 24.87425422668457 7.094506740570068 L 25.08636474609375 7.302006721496582 L 27.1964054107666 9.366176605224609 L 27.4132251739502 9.578286170959473 L 27.19874572753906 9.792756080627441 L 14.21736526489258 22.77412605285645 L 14.00459480285645 22.98690605163574 Z" stroke="none"/>
          <path d="M 14.00523471832275 22.56199645996094 L 26.98661422729492 9.580626487731934 L 24.8765754699707 7.516456604003906 L 14.00524520874023 18.38777732849121 L 8.500775337219238 12.8833065032959 L 6.43659496307373 14.94748687744141 L 14.00523471832275 22.56199645996094 M 14.00522994995117 23.16199684143066 C 13.8456974029541 23.16216468811035 13.69230842590332 23.0982723236084 13.5796947479248 22.98497581481934 L 6.011054992675781 15.3704662322998 C 5.777945041656494 15.13594627380371 5.778514862060547 14.75703620910645 6.012335300445557 14.52322673797607 L 8.076515197753906 12.45904636383057 C 8.310824394226074 12.22472667694092 8.69072437286377 12.22472667694092 8.92503547668457 12.45904636383057 L 14.00524520874023 17.53925704956055 L 24.45231437683105 7.092196464538574 C 24.68480682373047 6.859696865081787 25.06111526489258 6.857626914978027 25.29615592956543 7.0875563621521 L 27.40619468688965 9.151726722717285 C 27.52075576782227 9.263806343078613 27.58572578430176 9.417056083679199 27.58660507202148 9.577326774597168 C 27.58748435974121 9.73759651184082 27.52420425415039 9.891556739807129 27.41087532043457 10.00488662719727 L 14.42949485778809 22.98625564575195 C 14.31696796417236 23.09879302978516 14.1643533706665 23.16199684143066 14.00522994995117 23.16199684143066 Z" stroke="none" fill="#fff"/>
        </g>
      </g>
    </g>
    <g id="Rectangle_7159" data-name="Rectangle 7159" transform="translate(15.988 15.488)" fill="none" stroke="#e4f4dc" stroke-width="1">
      <rect width="84" height="84" rx="42" stroke="none"/>
      <rect x="0.5" y="0.5" width="83" height="83" rx="41.5" fill="none"/>
    </g>
  </g>
</svg>