<svg xmlns="http://www.w3.org/2000/svg" width="39" height="39" viewBox="0 0 39 39">
  <g id="Group_58002" data-name="Group 58002" transform="translate(-1211.5 -10.5)">
    <path id="Path_155385" data-name="Path 155385" d="M19,0A19,19,0,1,1,0,19,19,19,0,0,1,19,0Z" transform="translate(1212 11)" fill="#e36826" stroke="rgba(0,0,0,0)" stroke-width="1"/>
    <path id="Path_155386" data-name="Path 155386" d="M298.862,206.5h-9.284A2.582,2.582,0,0,0,287,209.079v6.189a2.582,2.582,0,0,0,2.579,2.579h5.2l2.246,2.245a.774.774,0,0,0,1.32-.547v-1.7h.516a2.582,2.582,0,0,0,2.579-2.579v-6.189a2.582,2.582,0,0,0-2.579-2.579Zm-2.063,4.9h-.288a4.63,4.63,0,0,1-1.372,2.8,3.585,3.585,0,0,0,1.4.291.532.532,0,0,1,.534.516.5.5,0,0,1-.5.516,4.708,4.708,0,0,1-2.347-.633,4.606,4.606,0,0,1-2.331.633.531.531,0,0,1-.534-.516.5.5,0,0,1,.5-.516,3.681,3.681,0,0,0,1.45-.3,4.581,4.581,0,0,1-.967-1.327.516.516,0,1,1,.932-.442,3.6,3.6,0,0,0,.94,1.213,3.592,3.592,0,0,0,1.251-2.243h-3.827a.516.516,0,1,1,0-1.032H293.7v-1.032a.516.516,0,0,1,1.032,0v1.032H296.8a.516.516,0,0,1,0,1.032Z" transform="translate(941.303 -179.827)" fill="#fff"/>
    <path id="Path_155388" data-name="Path 155388" d="M130.862,91h-9.284A2.582,2.582,0,0,0,119,93.578v6.189a2.582,2.582,0,0,0,2.579,2.579h.516v1.7a.773.773,0,0,0,1.32.547l2.246-2.245h.56V99.251a3.585,3.585,0,0,1,.152-1.032h-1.461l-.8,1.76a.516.516,0,1,1-.939-.427l2.579-5.673a.516.516,0,0,1,.939,0l1.092,2.4a3.59,3.59,0,0,1,2.049-.641h3.61V93.577A2.582,2.582,0,0,0,130.863,91Z" transform="translate(1101.051 -69.999)" fill="#fff"/>
  </g>
</svg>
